<svg width="77" height="67" viewBox="0 0 77 67" fill="none" xmlns="http://www.w3.org/2000/svg">
<path d="M5.23306 39.7676C5.30077 40.6674 5.70656 41.5082 6.36886 42.121C7.03117 42.7338 7.90089 43.0732 8.8032 43.071H26.7496C27.0669 43.071 27.3713 42.9449 27.5956 42.7205C27.82 42.4962 27.9461 42.1919 27.9461 41.8745C27.9461 41.5572 27.82 41.2529 27.5956 41.0285C27.3713 40.8042 27.0669 40.6781 26.7496 40.6781H13.5889V35.677L22.9103 33.8118C23.4628 35.2771 24.2521 36.6416 25.2469 37.851C25.3456 37.9763 25.4684 38.0806 25.6079 38.1577C25.7475 38.2349 25.9011 38.2834 26.0597 38.3003C26.2183 38.3173 26.3787 38.3023 26.5315 38.2564C26.6842 38.2104 26.8262 38.1344 26.9492 38.0328C27.0721 37.9311 27.1735 37.806 27.2473 37.6646C27.3211 37.5232 27.366 37.3685 27.3792 37.2095C27.3923 37.0506 27.3736 36.8906 27.324 36.739C27.2745 36.5874 27.1951 36.4472 27.0906 36.3267C25.712 34.6549 24.8133 32.64 24.4904 30.4972C24.1676 28.3545 24.4328 26.1643 25.2577 24.1605C26.0826 22.1566 27.4362 20.4145 29.174 19.12C30.9118 17.8255 32.9685 17.0273 35.1246 16.8106V19.2166C33.544 19.4152 32.038 20.0053 30.7431 20.9332C29.4482 21.8611 28.4053 23.0976 27.7092 24.5305C27.013 25.9634 26.6855 27.5473 26.7563 29.1388C26.8271 30.7303 27.294 32.2789 28.1148 33.6443C28.1916 33.7858 28.2962 33.9104 28.4223 34.0105C28.5484 34.1106 28.6935 34.1843 28.8487 34.227C29.004 34.2697 29.1662 34.2807 29.3258 34.2592C29.4854 34.2377 29.639 34.1843 29.7775 34.102C29.9159 34.0197 30.0363 33.9104 30.1314 33.7804C30.2266 33.6505 30.2945 33.5028 30.3312 33.346C30.3679 33.1892 30.3725 33.0266 30.3449 32.8679C30.3172 32.7093 30.2578 32.5579 30.1702 32.4228C29.5008 31.3012 29.1458 30.02 29.1425 28.7138C29.1444 26.8105 29.9013 24.9857 31.2471 23.6399C32.593 22.2941 34.4178 21.5372 36.3211 21.5353C36.6384 21.5353 36.9427 21.4092 37.1671 21.1848C37.3914 20.9605 37.5175 20.6561 37.5175 20.3388V16.8106C39.6736 17.0273 41.7303 17.8255 43.4681 19.12C45.2059 20.4145 46.5595 22.1566 47.3844 24.1605C48.2093 26.1643 48.4745 28.3545 48.1517 30.4972C47.8289 32.64 46.9302 34.6549 45.5515 36.3267C45.447 36.4472 45.3676 36.5874 45.3181 36.739C45.2685 36.8906 45.2498 37.0506 45.263 37.2095C45.2761 37.3685 45.321 37.5232 45.3948 37.6646C45.4687 37.806 45.57 37.9311 45.693 38.0328C45.8159 38.1344 45.9579 38.2104 46.1106 38.2564C46.2634 38.3023 46.4238 38.3173 46.5824 38.3003C46.741 38.2834 46.8946 38.2349 47.0342 38.1577C47.1738 38.0806 47.2965 37.9763 47.3952 37.851C48.39 36.6416 49.1794 35.2771 49.7318 33.8118L59.0532 35.677V40.6781H47.0889C46.7716 40.6781 46.4673 40.8042 46.2429 41.0285C46.0185 41.2529 45.8925 41.5572 45.8925 41.8745C45.8925 42.1919 46.0185 42.4962 46.2429 42.7205C46.4673 42.9449 46.7716 43.071 47.0889 43.071H63.8389C64.7412 43.0732 65.611 42.7338 66.2733 42.121C66.9356 41.5082 67.3414 40.6674 67.4091 39.7676C67.4233 39.673 67.4297 39.5774 67.4282 39.4817V8.37454C67.431 8.25462 67.425 8.13466 67.4103 8.01562C67.3241 7.12913 66.9103 6.30669 66.2498 5.70922C65.5893 5.11176 64.7296 4.78228 63.8389 4.78526H8.8032C8.33505 4.78167 7.87094 4.87205 7.43834 5.05104C7.00575 5.23004 6.61346 5.49402 6.28472 5.82735C5.67554 6.42722 5.30049 7.22484 5.22708 8.07663L5.21392 28.6923C5.21392 28.6995 5.21392 28.7067 5.21392 28.7138C5.21392 28.721 5.21392 28.7282 5.21392 28.7354V39.4817C5.21246 39.5774 5.21886 39.673 5.23306 39.7676ZM27.2055 17.6337L14.7853 13.4941V7.17812H18.3746V10.7674C18.3739 11.0705 18.4882 11.3627 18.6945 11.5847C18.9008 11.8068 19.1838 11.9423 19.4861 11.9638L35.1246 13.0777V14.4177C32.2189 14.6553 29.4555 15.7763 27.2055 17.6301V17.6337ZM36.406 10.7674L20.7675 9.65353V7.17812H51.8746V9.65353L42.2183 10.3439C41.9009 10.355 41.601 10.4917 41.3845 10.7239C41.168 10.9561 41.0526 11.2649 41.0637 11.5822C41.0748 11.8995 41.2115 12.1994 41.4437 12.4159C41.676 12.6324 41.9847 12.7478 42.302 12.7367H42.3881L53.156 11.9674C53.459 11.9459 53.7424 11.8099 53.9488 11.587C54.1553 11.3642 54.2692 11.0711 54.2675 10.7674V7.17812H57.8568V13.4941L45.4366 17.6301C43.1866 15.7763 40.4232 14.6553 37.5175 14.4177V11.9638C37.5183 11.6607 37.4039 11.3686 37.1976 11.1465C36.9913 10.9244 36.7084 10.7889 36.406 10.7674ZM65.0353 8.2549C65.0353 8.27883 65.0353 8.35062 65.0413 8.37454V27.5174H54.2675C53.9502 27.5174 53.6459 27.6435 53.4215 27.8678C53.1971 28.0922 53.0711 28.3965 53.0711 28.7138C53.0711 29.0311 53.1971 29.3355 53.4215 29.5598C53.6459 29.7842 53.9502 29.9103 54.2675 29.9103H65.0353V39.447C65.0353 39.4829 65.027 39.52 65.0246 39.5571C65.0055 39.8593 64.8725 40.143 64.6525 40.3511C64.4325 40.5591 64.1417 40.676 63.8389 40.6781H61.4461V34.696C61.4461 34.4202 61.3509 34.1528 61.1765 33.9391C61.002 33.7255 60.7592 33.5786 60.4889 33.5235L50.3982 31.5051C50.7756 29.6632 50.778 27.7642 50.4054 25.9214L60.4889 23.9042C60.7592 23.849 61.002 23.7022 61.1765 23.4885C61.3509 23.2749 61.4461 23.0075 61.4461 22.7317V19.1424C61.4461 18.8251 61.32 18.5208 61.0956 18.2964C60.8713 18.072 60.5669 17.946 60.2496 17.946C59.9323 17.946 59.628 18.072 59.4036 18.2964C59.1793 18.5208 59.0532 18.8251 59.0532 19.1424V21.7506L49.7211 23.617C49.1567 22.128 48.348 20.7435 47.3282 19.5205L59.4241 15.4921C59.6638 15.4139 59.8726 15.2621 60.0209 15.0582C60.1691 14.8543 60.2492 14.6088 60.2496 14.3567V7.17812H63.8389C64.1359 7.17876 64.4223 7.289 64.6431 7.4877C64.8638 7.6864 65.0035 7.95959 65.0353 8.2549ZM7.60678 8.2549C7.63563 7.97421 7.76276 7.71275 7.9657 7.51671C8.07504 7.40642 8.20567 7.31953 8.34965 7.26133C8.49363 7.20312 8.64794 7.17481 8.8032 7.17812H12.3925V14.3567C12.3924 14.6079 12.4714 14.8527 12.6183 15.0565C12.7652 15.2603 12.9725 15.4127 13.2108 15.4921L25.3067 19.5205C24.2869 20.7435 23.4782 22.128 22.9139 23.617L13.5889 21.7506V19.1424C13.5889 18.8251 13.4629 18.5208 13.2385 18.2964C13.0141 18.072 12.7098 17.946 12.3925 17.946C12.0752 17.946 11.7709 18.072 11.5465 18.2964C11.3221 18.5208 11.1961 18.8251 11.1961 19.1424V22.7317C11.196 23.0075 11.2912 23.2749 11.4657 23.4885C11.6401 23.7022 11.883 23.849 12.1532 23.9042L22.2367 25.9214C21.8641 27.7642 21.8665 29.6632 22.2439 31.5051L12.1532 33.5235C11.883 33.5786 11.6401 33.7255 11.4657 33.9391C11.2912 34.1528 11.196 34.4202 11.1961 34.696V40.6781H8.8032C8.50039 40.676 8.20965 40.5591 7.98961 40.3511C7.76957 40.143 7.63661 39.8593 7.61754 39.5571C7.61515 39.52 7.60678 39.4817 7.60678 39.447V29.9103H18.3746C18.6919 29.9103 18.9963 29.7842 19.2206 29.5598C19.445 29.3355 19.5711 29.0311 19.5711 28.7138C19.5711 28.3965 19.445 28.0922 19.2206 27.8678C18.9963 27.6435 18.6919 27.5174 18.3746 27.5174H7.60678V8.43317V8.2549Z" fill="#4F6993"/>
<path d="M68.625 0H8.80356C6.58315 0.00253327 4.45441 0.885711 2.88434 2.45578C1.31427 4.02585 0.431092 6.15459 0.428558 8.375L0.428558 39.4821C0.431092 41.7026 1.31427 43.8313 2.88434 45.4014C4.45441 46.9714 6.58315 47.8546 8.80356 47.8571H23.1607C23.478 47.8571 23.7823 47.7311 24.0067 47.5067C24.2311 47.2823 24.3571 46.978 24.3571 46.6607C24.3571 46.3434 24.2311 46.0391 24.0067 45.8147C23.7823 45.5903 23.478 45.4643 23.1607 45.4643H8.80356C7.21758 45.4624 5.6971 44.8315 4.57564 43.7101C3.45419 42.5886 2.82332 41.0681 2.82142 39.4821V8.375C2.82332 6.78902 3.45419 5.26854 4.57564 4.14708C5.6971 3.02563 7.21758 2.39476 8.80356 2.39286H68.625C70.211 2.39476 71.7314 3.02563 72.8529 4.14708C73.9744 5.26854 74.6052 6.78902 74.6071 8.375V39.4821C74.6052 41.0681 73.9744 42.5886 72.8529 43.7101C71.7314 44.8315 70.211 45.4624 68.625 45.4643H61.4464C61.1291 45.4643 60.8248 45.5903 60.6004 45.8147C60.376 46.0391 60.25 46.3434 60.25 46.6607C60.25 46.978 60.376 47.2823 60.6004 47.5067C60.8248 47.7311 61.1291 47.8571 61.4464 47.8571H68.625C70.8454 47.8546 72.9741 46.9714 74.5442 45.4014C76.1143 43.8313 76.9975 41.7026 77 39.4821V8.375C76.9975 6.15459 76.1143 4.02585 74.5442 2.45578C72.9741 0.885711 70.8454 0.00253327 68.625 0Z" fill="#4F6993"/>
<path d="M72.214 27.5176V20.339C72.214 20.0217 72.0879 19.7174 71.8636 19.493C71.6392 19.2686 71.3349 19.1426 71.0176 19.1426C70.7003 19.1426 70.3959 19.2686 70.1716 19.493C69.9472 19.7174 69.8211 20.0217 69.8211 20.339V27.5176C69.8211 27.8349 69.9472 28.1392 70.1716 28.3636C70.3959 28.588 70.7003 28.714 71.0176 28.714C71.3349 28.714 71.6392 28.588 71.8636 28.3636C72.0879 28.1392 72.214 27.8349 72.214 27.5176Z" fill="#4F6993"/>
<path d="M57.8568 49.0527C56.9016 49.0518 55.9683 49.3382 55.178 49.8747C54.94 49.1825 54.5458 48.5546 54.0258 48.0395C53.5059 47.5244 52.8742 47.136 52.1799 46.9046C51.4856 46.6731 50.7472 46.6048 50.0222 46.7049C49.2972 46.805 48.605 47.0709 47.9994 47.4818C47.7743 46.8141 47.4027 46.2052 46.9117 45.6997C46.4208 45.1943 45.823 44.8051 45.1621 44.5606C44.5012 44.3161 43.794 44.2226 43.0923 44.2869C42.3906 44.3512 41.7122 44.5717 41.1068 44.9322V28.7134C41.1068 27.4442 40.6026 26.2269 39.7051 25.3294C38.8076 24.4319 37.5903 23.9277 36.3211 23.9277C35.0518 23.9277 33.8346 24.4319 32.9371 25.3294C32.0396 26.2269 31.5354 27.4442 31.5354 28.7134V46.7556C29.5444 47.0445 27.7238 48.0398 26.4058 49.5598C25.0879 51.0798 24.3606 53.0231 24.3568 55.0349V65.8027C24.3568 66.12 24.4828 66.4244 24.7072 66.6487C24.9316 66.8731 25.2359 66.9992 25.5532 66.9992C25.8705 66.9992 26.1748 66.8731 26.3992 66.6487C26.6236 66.4244 26.7496 66.12 26.7496 65.8027V55.0349C26.7512 53.6563 27.228 52.3204 28.0998 51.2524C28.9716 50.1845 30.185 49.4499 31.5354 49.1724V59.8206C31.5354 60.1379 31.6614 60.4422 31.8858 60.6666C32.1102 60.891 32.4145 61.017 32.7318 61.017C33.0491 61.017 33.3534 60.891 33.5778 60.6666C33.8022 60.4422 33.9282 60.1379 33.9282 59.8206V28.7134C33.9282 28.0788 34.1803 27.4702 34.6291 27.0214C35.0778 26.5727 35.6864 26.3206 36.3211 26.3206C36.9557 26.3206 37.5643 26.5727 38.0131 27.0214C38.4618 27.4702 38.7139 28.0788 38.7139 28.7134V59.8206C38.7139 60.1379 38.84 60.4422 39.0643 60.6666C39.2887 60.891 39.593 61.017 39.9104 61.017C40.2277 61.017 40.532 60.891 40.7564 60.6666C40.9807 60.4422 41.1068 60.1379 41.1068 59.8206V49.0527C41.1068 48.4181 41.3589 47.8095 41.8076 47.3607C42.2564 46.912 42.865 46.6599 43.4996 46.6599C44.1343 46.6599 44.7429 46.912 45.1916 47.3607C45.6404 47.8095 45.8925 48.4181 45.8925 49.0527V59.8206C45.8925 60.1379 46.0185 60.4422 46.2429 60.6666C46.4673 60.891 46.7716 61.017 47.0889 61.017C47.4062 61.017 47.7106 60.891 47.9349 60.6666C48.1593 60.4422 48.2854 60.1379 48.2854 59.8206V51.4456C48.2854 50.811 48.5375 50.2023 48.9862 49.7536C49.4349 49.3048 50.0436 49.0527 50.6782 49.0527C51.3128 49.0527 51.9215 49.3048 52.3702 49.7536C52.819 50.2023 53.0711 50.811 53.0711 51.4456V59.8206C53.0711 60.1379 53.1971 60.4422 53.4215 60.6666C53.6459 60.891 53.9502 61.017 54.2675 61.017C54.5848 61.017 54.8891 60.891 55.1135 60.6666C55.3379 60.4422 55.4639 60.1379 55.4639 59.8206V53.8385C55.4639 53.2038 55.716 52.5952 56.1648 52.1464C56.6135 51.6977 57.2222 51.4456 57.8568 51.4456C58.4914 51.4456 59.1 51.6977 59.5488 52.1464C59.9975 52.5952 60.2496 53.2038 60.2496 53.8385V65.8027C60.2496 66.12 60.3757 66.4244 60.6001 66.6487C60.8244 66.8731 61.1288 66.9992 61.4461 66.9992C61.7634 66.9992 62.0677 66.8731 62.2921 66.6487C62.5164 66.4244 62.6425 66.12 62.6425 65.8027V53.8385C62.6425 52.5692 62.1383 51.3519 61.2408 50.4544C60.3433 49.5569 59.126 49.0527 57.8568 49.0527Z" fill="#4F6993"/>
<path d="M42.8823 34.0544C43.1539 34.218 43.4794 34.267 43.7872 34.1907C44.095 34.1145 44.3599 33.9191 44.5238 33.6476C45.1718 32.5704 45.6012 31.376 45.7876 30.1328C45.974 28.8896 45.9136 27.6218 45.61 26.4019C45.3064 25.182 44.7654 24.0339 44.018 23.0231C43.2705 22.0123 42.3313 21.1586 41.2539 20.5108C41.1193 20.4224 40.9682 20.3621 40.8097 20.3335C40.6513 20.3049 40.4886 20.3086 40.3316 20.3443C40.1746 20.38 40.0264 20.4471 39.8959 20.5415C39.7654 20.6359 39.6553 20.7557 39.5722 20.8937C39.4891 21.0316 39.4348 21.1849 39.4124 21.3444C39.39 21.5039 39.4 21.6663 39.4418 21.8218C39.4837 21.9773 39.5565 22.1228 39.6559 22.2495C39.7553 22.3762 39.8793 22.4815 40.0204 22.5591C41.6515 23.541 42.8263 25.1301 43.2866 26.9774C43.7469 28.8248 43.4552 30.7793 42.4755 32.4117C42.3943 32.5463 42.3404 32.6955 42.3169 32.8509C42.2934 33.0063 42.3008 33.1648 42.3386 33.3173C42.3763 33.4699 42.4438 33.6135 42.5371 33.74C42.6304 33.8664 42.7477 33.9733 42.8823 34.0544Z" fill="#4F6993"/>
</svg>
