<svg width="76" height="76" viewBox="0 0 76 76" fill="none" xmlns="http://www.w3.org/2000/svg">
<g clip-path="url(#clip0_199_129)">
<path d="M65.0988 45.8013C64.4085 45.4033 63.6459 45.1468 62.8554 45.0469C62.0649 44.947 61.2624 45.0057 60.4949 45.2195L56.8516 38.6146C56.7491 38.4287 56.5986 38.2738 56.4159 38.1658C56.2331 38.0578 56.0248 38.0008 55.8125 38.0007H51.0625V34.4382H53.4375C53.7525 34.4382 54.0545 34.313 54.2772 34.0903C54.4999 33.8676 54.625 33.5656 54.625 33.2507C54.625 32.9357 54.4999 32.6337 54.2772 32.411C54.0545 32.1883 53.7525 32.0632 53.4375 32.0632H51.0625V29.6882H54.625C54.94 29.6882 55.242 29.563 55.4647 29.3403C55.6874 29.1176 55.8125 28.8156 55.8125 28.5007V26.0603C56.0091 26.0929 56.2073 26.1147 56.4063 26.1257C57.5052 26.1277 58.5779 25.7903 59.4777 25.1595C60.3776 24.5287 61.0606 23.6353 61.4333 22.6016C61.806 21.5678 61.8503 20.4441 61.5601 19.3842C61.2699 18.3243 60.6594 17.38 59.812 16.6803L65.3209 11.1715C65.5372 10.9475 65.6569 10.6475 65.6542 10.3362C65.6514 10.0248 65.5266 9.72698 65.3064 9.5068C65.0862 9.28663 64.7884 9.16174 64.477 9.15904C64.1657 9.15633 63.8657 9.27602 63.6417 9.49234L57.5582 15.5759C57.1805 15.4877 56.7942 15.4415 56.4063 15.4382C55.2607 15.4392 54.1459 15.8083 53.226 16.491C52.3062 17.1738 51.6301 18.1341 51.2975 19.2303C50.9649 20.3265 50.9933 21.5005 51.3786 22.5793C51.7639 23.6581 52.4857 24.5845 53.4375 25.222V27.3132H51.0625C51.0586 26.2631 50.7069 25.244 50.0623 24.4151C49.4178 23.5862 48.5167 22.9943 47.5 22.7318V19.4068L52.8723 12.4979C54.0005 13.0556 55.2897 13.1959 56.5114 12.8941C57.7332 12.5923 58.8087 11.8677 59.5474 10.8488C60.2861 9.82988 60.6403 8.5824 60.5472 7.32734C60.4541 6.07228 59.9198 4.89067 59.039 3.99184C58.2464 3.17075 57.2088 2.62904 56.0821 2.44809C56.031 2.43502 55.9788 2.42434 55.9265 2.41602C55.6918 2.38671 55.4553 2.37322 55.2188 2.37565C54.2165 2.3743 53.234 2.65526 52.384 3.18634C51.5339 3.71743 50.8506 4.47718 50.4123 5.37859C49.974 6.28 49.7984 7.28662 49.9056 8.28319C50.0128 9.27977 50.3986 10.226 51.0186 11.0135L45.3744 18.2715C45.2126 18.4801 45.1248 18.7366 45.125 19.0007V22.5632H41.5625V17.6944C42.9048 17.4219 44.1115 16.6937 44.9782 15.6332C45.845 14.5728 46.3185 13.2453 46.3185 11.8757C46.3185 10.506 45.845 9.17854 44.9782 8.11809C44.1115 7.05764 42.9048 6.32945 41.5625 6.0569V1.18815C41.5622 1.03318 41.5312 0.879809 41.4712 0.736933C41.4111 0.594057 41.3234 0.464517 41.2129 0.355823C41.1024 0.247129 40.9715 0.161445 40.8277 0.103738C40.6838 0.0460305 40.53 0.0174486 40.375 0.0196493C40.0584 0.0234038 39.756 0.151998 39.5336 0.377477C39.3113 0.602956 39.1869 0.907093 39.1875 1.22377V6.0569C37.8453 6.32945 36.6386 7.05764 35.7718 8.11809C34.9051 9.17854 34.4316 10.506 34.4316 11.8757C34.4316 13.2453 34.9051 14.5728 35.7718 15.6332C36.6386 16.6937 37.8453 17.4219 39.1875 17.6944V22.5632H35.625V20.1882C35.625 19.9912 35.5761 19.7974 35.4825 19.6241L30.4713 10.32C30.9755 9.82648 31.3761 9.23712 31.6493 8.5866C31.9226 7.93607 32.0631 7.23749 32.0625 6.5319C32.0611 5.56949 31.8002 4.62526 31.3075 3.79856C30.8147 2.97187 30.1083 2.29326 29.2624 1.83415C28.5825 1.46441 27.8301 1.24761 27.0577 1.19889C26.2853 1.15017 25.5116 1.2707 24.7906 1.55208C24.0697 1.83345 23.4189 2.26887 22.8837 2.82791C22.3485 3.38695 21.9418 4.05612 21.6921 4.78865C14.4484 9.70253 14.0339 17.3382 13.7453 22.9443C13.745 24.6904 13.5361 26.4301 13.1231 28.1266C11.9867 31.5454 7.64398 37.1872 5.83066 39.4542C5.24979 40.1835 4.88636 41.0618 4.78208 41.9884C4.67781 42.9149 4.83692 43.8521 5.24115 44.6923C5.64538 45.5325 6.27834 46.2417 7.06737 46.7384C7.85641 47.2352 8.76953 47.4994 9.70191 47.5007H13.015C12.9747 50.2628 13.2644 56.7869 16.6144 60.404C17.3664 61.2278 18.2868 61.8805 19.313 62.3177C20.3392 62.7549 21.4474 62.9665 22.5625 62.9382C25.2494 62.8412 27.9252 62.5431 30.5675 62.0463L28.1533 74.5887C28.1202 74.7605 28.1255 74.9375 28.1688 75.1071C28.2121 75.2766 28.2924 75.4344 28.4038 75.5694C28.5152 75.7043 28.6551 75.8129 28.8133 75.8874C28.9716 75.962 29.1444 76.0007 29.3194 76.0007H60.3013C60.4763 76.0007 60.6491 75.962 60.8074 75.8874C60.9656 75.8129 61.1055 75.7043 61.2169 75.5694C61.3283 75.4344 61.4086 75.2766 61.4519 75.1071C61.4952 74.9375 61.5005 74.7605 61.4674 74.5887L61.1349 72.8668C60.1182 67.5479 60.2836 62.0704 61.6194 56.8225C61.7774 56.8356 61.9353 56.8582 62.0944 56.8582C63.3973 56.8574 64.6638 56.4281 65.6986 55.6365C66.7334 54.8449 67.4791 53.7349 67.8208 52.4776C68.1624 51.2202 68.081 49.8855 67.5891 48.679C67.0972 47.4725 66.2221 46.4613 65.0988 45.8013ZM56.4063 17.8132C56.7636 17.8104 57.1181 17.8769 57.4501 18.0091H57.4572L57.4786 18.0186C58.1213 18.271 58.6559 18.7394 58.9905 19.3434C59.325 19.9474 59.4386 20.6491 59.3116 21.3278C59.1847 22.0065 58.8251 22.6197 58.2948 23.0619C57.7646 23.5041 57.0967 23.7477 56.4063 23.7507C55.9658 23.7537 55.5305 23.6549 55.1345 23.4621C54.5267 23.1726 54.0354 22.6851 53.7411 22.0796C53.4468 21.4741 53.3671 20.7866 53.515 20.1298C53.6628 19.4731 54.0295 18.8861 54.5549 18.4651C55.0802 18.0442 55.7331 17.8143 56.4063 17.8132ZM55.2188 4.75065C55.3114 4.75065 55.4005 4.75065 55.4884 4.76253C55.5344 4.77431 55.5812 4.78303 55.6285 4.78865C56.2776 4.8718 56.8789 5.17431 57.3325 5.64603L57.3409 5.65434C57.8846 6.20393 58.189 6.94627 58.1875 7.7194C58.1875 8.50676 57.8748 9.26188 57.318 9.81862C56.7613 10.3754 56.0061 10.6882 55.2188 10.6882C54.4324 10.685 53.6791 10.3712 53.123 9.81517C52.5669 9.2591 52.2532 8.5058 52.25 7.7194C52.25 6.93204 52.5628 6.17693 53.1196 5.62018C53.6763 5.06343 54.4314 4.75065 55.2188 4.75065ZM36.8125 11.8757C36.8125 11.1711 37.0215 10.4823 37.4129 9.89643C37.8044 9.31058 38.3608 8.85397 39.0117 8.58433C39.6627 8.31469 40.379 8.24414 41.07 8.3816C41.7611 8.51906 42.3959 8.85836 42.8941 9.35658C43.3923 9.85481 43.7316 10.4896 43.8691 11.1806C44.0065 11.8717 43.936 12.588 43.6664 13.239C43.3967 13.8899 42.9401 14.4463 42.3543 14.8378C41.7684 15.2292 41.0796 15.4382 40.375 15.4382C39.4302 15.4382 38.5241 15.0628 37.856 14.3947C37.1879 13.7266 36.8125 12.8205 36.8125 11.8757ZM48.6875 27.3132V39.1882C48.6875 39.818 48.4373 40.4221 47.9919 40.8675C47.5465 41.3129 46.9424 41.5632 46.3125 41.5632H34.4375C33.8076 41.5632 33.2036 41.3129 32.7582 40.8675C32.3128 40.4221 32.0625 39.818 32.0625 39.1882V27.3132C32.0625 26.6833 32.3128 26.0792 32.7582 25.6338C33.2036 25.1884 33.8076 24.9382 34.4375 24.9382H46.3125C46.9424 24.9382 47.5465 25.1884 47.9919 25.6338C48.4373 26.0792 48.6875 26.6833 48.6875 27.3132ZM26.7188 3.56315C27.2076 3.56286 27.6886 3.68535 28.1177 3.9194C28.5747 4.16396 28.9595 4.52414 29.2338 4.96397C29.5081 5.4038 29.6621 5.90788 29.6806 6.42588C29.6991 6.94389 29.5814 7.45768 29.3393 7.91596C29.0971 8.37424 28.7389 8.76097 28.3005 9.03753C27.8304 9.34431 27.2801 9.50543 26.7188 9.50065C25.9314 9.50065 25.1763 9.18787 24.6196 8.63112C24.0628 8.07438 23.75 7.31926 23.75 6.5319C23.7519 6.29121 23.7846 6.05176 23.8474 5.8194C24.0016 5.1747 24.3691 4.60103 24.8904 4.19147C25.4116 3.78191 26.0559 3.56049 26.7188 3.56315ZM30.7563 73.6257L33.2275 60.7876C33.2643 60.596 33.2535 60.3984 33.1958 60.212C33.1381 60.0257 33.0354 59.8564 32.8968 59.7192C32.7581 59.582 32.5878 59.481 32.4009 59.4252C32.214 59.3694 32.0162 59.3606 31.825 59.3994C28.7704 60.0147 25.6745 60.4037 22.5625 60.5632C21.7755 60.5907 20.9918 60.4467 20.2659 60.1412C19.54 59.8357 18.8893 59.3759 18.3588 58.7938C14.8284 54.9819 15.428 46.4889 15.4375 46.4034C15.45 46.24 15.4285 46.0759 15.3744 45.9212C15.3203 45.7665 15.2349 45.6248 15.1233 45.5047C15.0118 45.3847 14.8766 45.2891 14.7263 45.2239C14.576 45.1586 14.4139 45.1252 14.25 45.1257H9.70191C9.21686 45.1249 8.74183 44.9876 8.33125 44.7293C7.92067 44.4711 7.59114 44.1024 7.38044 43.6655C7.16974 43.2286 7.08638 42.7412 7.13992 42.2591C7.19346 41.777 7.38174 41.3197 7.68316 40.9397C10.0368 38.0007 14.1657 32.5227 15.3758 28.8759C15.8679 26.9787 16.1169 25.0266 16.1168 23.0667C16.3709 18.135 16.6975 12.1227 21.5674 7.87615C21.7474 8.58948 22.0739 9.25751 22.5263 9.83764C22.9787 10.4178 23.547 10.8973 24.195 11.2456C24.843 11.594 25.5564 11.8035 26.2899 11.8609C27.0233 11.9182 27.7607 11.8222 28.4549 11.5788L33.25 20.4874V22.7318C32.2334 22.9943 31.3323 23.5862 30.6878 24.4151C30.0432 25.244 29.6915 26.2631 29.6875 27.3132H24.9375C24.6226 27.3132 24.3205 27.4383 24.0978 27.661C23.8751 27.8837 23.75 28.1857 23.75 28.5007C23.75 28.8156 23.8751 29.1176 24.0978 29.3403C24.3205 29.563 24.6226 29.6882 24.9375 29.6882H29.6875V32.0632H22.5625C22.2476 32.0632 21.9455 32.1883 21.7228 32.411C21.5001 32.6337 21.375 32.9357 21.375 33.2507C21.375 33.5656 21.5001 33.8676 21.7228 34.0903C21.9455 34.313 22.2476 34.4382 22.5625 34.4382H29.6875V36.8132H24.9375C24.6226 36.8132 24.3205 36.9383 24.0978 37.161C23.8751 37.3837 23.75 37.6857 23.75 38.0007C23.75 38.3156 23.8751 38.6176 24.0978 38.8403C24.3205 39.063 24.6226 39.1882 24.9375 39.1882H29.6875C29.6875 40.4479 30.188 41.6561 31.0788 42.5469C31.9696 43.4377 33.1778 43.9382 34.4375 43.9382V47.5007C34.4375 47.8156 34.5626 48.1176 34.7853 48.3403C35.008 48.563 35.3101 48.6882 35.625 48.6882C35.94 48.6882 36.242 48.563 36.4647 48.3403C36.6874 48.1176 36.8125 47.8156 36.8125 47.5007V43.9382H39.1875V49.8757C39.1875 50.1906 39.3126 50.4926 39.5353 50.7153C39.758 50.938 40.0601 51.0632 40.375 51.0632C40.69 51.0632 40.992 50.938 41.2147 50.7153C41.4374 50.4926 41.5625 50.1906 41.5625 49.8757V43.9382H43.9375V47.5007C43.9375 47.8156 44.0626 48.1176 44.2853 48.3403C44.508 48.563 44.8101 48.6882 45.125 48.6882C45.44 48.6882 45.742 48.563 45.9647 48.3403C46.1874 48.1176 46.3125 47.8156 46.3125 47.5007V43.9382C47.3625 43.9342 48.3817 43.5825 49.2106 42.9379C50.0395 42.2934 50.6314 41.3923 50.8939 40.3757H55.1119L58.3799 46.3013C57.6857 46.8544 57.1253 47.5571 56.7404 48.3569C56.3555 49.1567 56.1561 50.0331 56.1569 50.9207C56.1637 52.0002 56.4631 53.0577 57.0233 53.9805C57.5835 54.9034 58.3836 55.657 59.3382 56.1611C57.8982 61.77 57.7153 67.6279 58.8027 73.3157L58.862 73.6257H30.7563ZM62.0944 54.4832C61.7502 54.4837 61.4079 54.432 61.0791 54.33C60.3969 54.1268 59.7912 53.7239 59.3401 53.1732C58.889 52.6226 58.6133 51.9494 58.5483 51.2406C58.4834 50.5317 58.6323 49.8197 58.9759 49.1963C59.3195 48.5728 59.8419 48.0666 60.4758 47.7429C60.9785 47.4916 61.5325 47.3599 62.0944 47.3582C62.7273 47.3566 63.3489 47.526 63.8935 47.8486C64.5675 48.2443 65.0926 48.8507 65.388 49.5744C65.6833 50.298 65.7325 51.0987 65.528 51.853C65.3234 52.6074 64.8765 53.2735 64.256 53.7488C63.6355 54.2241 62.876 54.4821 62.0944 54.4832Z" fill="#4F6993"/>
<path d="M41.5625 28.5C41.5625 28.1851 41.4374 27.883 41.2147 27.6603C40.992 27.4376 40.6899 27.3125 40.375 27.3125H35.625C35.3101 27.3125 35.008 27.4376 34.7853 27.6603C34.5626 27.883 34.4375 28.1851 34.4375 28.5V38C34.4375 38.3149 34.5626 38.617 34.7853 38.8397C35.008 39.0624 35.3101 39.1875 35.625 39.1875C35.9399 39.1875 36.242 39.0624 36.4647 38.8397C36.6874 38.617 36.8125 38.3149 36.8125 38V29.6875H40.375C40.6899 29.6875 40.992 29.5624 41.2147 29.3397C41.4374 29.117 41.5625 28.8149 41.5625 28.5Z" fill="#4F6993"/>
<path d="M45.125 27.3125C44.8101 27.3125 44.508 27.4376 44.2853 27.6603C44.0626 27.883 43.9375 28.1851 43.9375 28.5V36.8125H40.375C40.0601 36.8125 39.758 36.9376 39.5353 37.1603C39.3126 37.383 39.1875 37.6851 39.1875 38C39.1875 38.3149 39.3126 38.617 39.5353 38.8397C39.758 39.0624 40.0601 39.1875 40.375 39.1875H45.125C45.4399 39.1875 45.742 39.0624 45.9647 38.8397C46.1874 38.617 46.3125 38.3149 46.3125 38V28.5C46.3125 28.1851 46.1874 27.883 45.9647 27.6603C45.742 27.4376 45.4399 27.3125 45.125 27.3125Z" fill="#4F6993"/>
<path d="M70.8522 28.8694C70.1428 28.1607 69.2473 27.6671 68.2693 27.4457C67.2912 27.2243 66.2705 27.284 65.325 27.6181C64.3795 27.9521 63.5477 28.5468 62.9259 29.3335C62.304 30.1202 61.9173 31.0667 61.8106 32.0638H59.375V31.3371L69.7062 20.0036C69.9035 19.7685 70.0021 19.4663 69.9814 19.1601C69.9607 18.854 69.8223 18.5677 69.5952 18.3614C69.3681 18.155 69.07 18.0446 68.7633 18.0532C68.4566 18.0618 68.1651 18.1888 67.9499 18.4076L57.3099 30.0807C57.1116 30.2983 57.0011 30.5819 57 30.8763V33.2513C57 33.5663 57.1251 33.8683 57.3478 34.091C57.5705 34.3137 57.8726 34.4388 58.1875 34.4388H62.0671C62.4371 35.4773 63.1183 36.3765 64.0178 37.014C64.9172 37.6514 65.9913 37.9962 67.0937 38.0013C67.8685 38.0023 68.6337 37.8316 69.3346 37.5014C70.2599 37.074 71.0436 36.3909 71.5934 35.5326C72.1432 34.6744 72.4361 33.6768 72.4375 32.6576C72.4393 31.9523 72.3 31.2538 72.0278 30.6033C71.7555 29.9527 71.3558 29.3632 70.8522 28.8694ZM68.3287 35.3508C67.9429 35.534 67.5209 35.6282 67.0937 35.6263C66.3728 35.6209 65.678 35.3553 65.1373 34.8783C64.5966 34.4013 64.2464 33.7451 64.1511 33.0304C64.131 32.9072 64.1222 32.7824 64.125 32.6576C64.125 31.8702 64.4378 31.1151 64.9945 30.5583C65.5513 30.0016 66.3064 29.6888 67.0937 29.6888C67.4806 29.6878 67.8638 29.7636 68.2211 29.9118C68.5785 30.06 68.9028 30.2777 69.1754 30.5521H69.1814C69.4615 30.8264 69.6838 31.154 69.8351 31.5156C69.9865 31.8773 70.0638 32.2656 70.0625 32.6576C70.0613 33.2253 69.8973 33.7807 69.59 34.2581C69.2827 34.7354 68.845 35.1147 68.3287 35.3508Z" fill="#4F6993"/>
<path d="M46.6605 6.77817C46.8844 6.99448 47.1844 7.11418 47.4957 7.11147C47.8071 7.10877 48.1049 6.98388 48.3251 6.76371C48.5453 6.54353 48.6702 6.24569 48.6729 5.93434C48.6756 5.62298 48.5559 5.32301 48.3396 5.09905L46.3125 3.07198V1.24798C46.3109 0.933039 46.1843 0.631619 45.9605 0.410033C45.7367 0.188447 45.434 0.0648464 45.1191 0.0664211C44.8041 0.0679958 44.5027 0.194617 44.2811 0.41843C44.0595 0.642243 43.9359 0.944914 43.9375 1.25986V3.56361C43.9376 3.87853 44.0627 4.18052 44.2855 4.40317L46.6605 6.77817Z" fill="#4F6993"/>
<path d="M35.625 5.93861C35.94 5.93861 36.242 5.8135 36.4647 5.5908C36.6874 5.3681 36.8125 5.06605 36.8125 4.75111V1.54486C36.8109 1.22991 36.6843 0.928494 36.4605 0.706908C36.2367 0.485322 35.934 0.361721 35.6191 0.363296C35.3041 0.364871 35.0027 0.491492 34.7811 0.715305C34.5595 0.939118 34.4359 1.24179 34.4375 1.55673V4.75111C34.4375 5.06605 34.5626 5.3681 34.7853 5.5908C35.008 5.8135 35.3101 5.93861 35.625 5.93861Z" fill="#4F6993"/>
<path d="M63.2857 18.6521C63.5084 18.8747 63.8104 18.9998 64.1252 18.9998C64.4401 18.9998 64.7421 18.8747 64.9648 18.6521L68.0167 15.6002C68.1301 15.4907 68.2206 15.3597 68.2828 15.2148C68.345 15.0699 68.3778 14.9141 68.3792 14.7564C68.3805 14.5987 68.3505 14.4424 68.2908 14.2964C68.2311 14.1505 68.1429 14.0179 68.0314 13.9064C67.9199 13.7949 67.7873 13.7067 67.6414 13.647C67.4954 13.5873 67.3391 13.5573 67.1814 13.5586C67.0237 13.56 66.8679 13.5928 66.723 13.655C66.5781 13.7172 66.4471 13.8077 66.3375 13.9211L63.2857 16.973C63.063 17.1957 62.938 17.4977 62.938 17.8126C62.938 18.1274 63.063 18.4294 63.2857 18.6521Z" fill="#4F6993"/>
<path d="M67.07 40.375H63.5313L60.325 36.1C60.136 35.848 59.8547 35.6815 59.5429 35.6369C59.2312 35.5924 58.9145 35.6735 58.6625 35.8625C58.4105 36.0515 58.244 36.3328 58.1994 36.6446C58.1549 36.9563 58.236 37.2731 58.425 37.525L61.9875 42.275C62.0981 42.4225 62.2415 42.5422 62.4064 42.6246C62.5713 42.7071 62.7531 42.75 62.9375 42.75H67.07C67.3849 42.75 67.687 42.6249 67.9097 42.4022C68.1324 42.1795 68.2575 41.8775 68.2575 41.5625C68.2575 41.2476 68.1324 40.9455 67.9097 40.7228C67.687 40.5001 67.3849 40.375 67.07 40.375Z" fill="#4F6993"/>
<path d="M55.6285 60.1994C55.3246 60.1193 55.0013 60.1629 54.7295 60.3207C54.4577 60.4785 54.2596 60.7377 54.1785 61.0413C53.4554 63.9586 53.384 66.9995 53.9695 69.9476C54.0325 70.2059 54.1804 70.4356 54.3895 70.5998C54.5986 70.7641 54.8567 70.8535 55.1226 70.8536C55.2178 70.8536 55.3126 70.8425 55.4052 70.8204C55.5568 70.7835 55.6997 70.7171 55.8256 70.6249C55.9516 70.5328 56.0581 70.4167 56.1392 70.2834C56.2202 70.1501 56.2742 70.0021 56.298 69.8479C56.3219 69.6937 56.3151 69.5363 56.278 69.3847C55.79 66.8206 55.8568 64.1818 56.474 61.6457C56.5529 61.3419 56.5082 61.0191 56.3498 60.748C56.1913 60.477 55.932 60.2797 55.6285 60.1994Z" fill="#4F6993"/>
</g>
<defs>
<clipPath id="clip0_199_129">
<rect width="76" height="76" fill="white"/>
</clipPath>
</defs>
</svg>
